SplineFontDB: 3.2
FontName: DSESeriesB
FullName: DSE Series B
FamilyName: DSE Series B
Weight: Regular
Copyright: Copyright (c) 2022, Darren Embry
UComments: "2022-5-7: Created with FontForge (http://fontforge.org)"
Version: 001.000
ItalicAngle: 0
UnderlinePosition: -144
UnderlineWidth: 72
Ascent: 960
Descent: 192
InvalidEm: 0
LayerCount: 2
Layer: 0 0 "Back" 1
Layer: 1 0 "Fore" 0
XUID: [1021 323 -1642646731 11131862]
OS2Version: 0
OS2_WeightWidthSlopeOnly: 0
OS2_UseTypoMetrics: 1
CreationTime: 1651977848
ModificationTime: 1657475186
OS2TypoAscent: 0
OS2TypoAOffset: 1
OS2TypoDescent: 0
OS2TypoDOffset: 1
OS2TypoLinegap: 0
OS2WinAscent: 0
OS2WinAOffset: 1
OS2WinDescent: 0
OS2WinDOffset: 1
HheadAscent: 0
HheadAOffset: 1
HheadDescent: 0
HheadDOffset: 1
OS2Vendor: 'PfEd'
Lookup: 258 0 0 "kern" { "kern-1" [172,0,2] } ['kern' ('DFLT' <'dflt' > 'latn' <'dflt' > ) ]
MarkAttachClasses: 1
DEI: 91125
KernClass2: 21 21 "kern-1"
 32 zero three eight B D O Q b d o q
 27 one H I J M N U h i j m n u
 3 two
 4 four
 4 five
 11 six G S g s
 5 seven
 4 nine
 3 A a
 3 C c
 3 E e
 3 F f
 7 K X k x
 3 L l
 3 P p
 3 R r
 3 T t
 11 V W Y v w y
 3 Z z
 5 slash
 26 zero eight C G O Q c g o q
 3 one
 3 two
 5 three
 4 four
 4 five
 3 six
 5 seven
 4 nine
 3 A a
 47 B D E F H I K L M N P R b d e f h i k l m n p r
 3 J j
 3 S s
 3 T t
 3 U u
 11 V W Y v w y
 3 X x
 3 Z z
 6 period
 5 slash

StartChar: A
Encoding: 65 65 0
Width: 18371
Flags: HW
LayerCount: 2
Fore
SplineSet
310.041015625 0 m 1
 268.603515625 204 l 1
 139.396484375 204 l 1
 97.95703125 0 l 1
 0 0 l 1
 156 768 l 1
 252 768 l 1
 408 0 l 1
 310.041015625 0 l 1
249 300.509765625 m 1
 158.896484375 300 l 1
 204 522.048828125 l 1
 249 300.509765625 l 1
156 768 m 1
 252 768 l 1
 156 768 l 1
EndSplineSet
EndChar

StartChar: B
Encoding: 66 66 1
Width: 1152
Flags: HW
LayerCount: 2
Fore
SplineSet
977.999023438 482.82421875 m 4
 975.336914062 464.918945312 969.322265625 447.676757812 960.271484375 432 c 4
 955.755859375 424.177734375 950.513671875 416.797851562 944.62109375 409.938476562 c 5
 951.952148438 402.021484375 958.366210938 393.327148438 963.751953125 384 c 4
 970.263671875 372.720703125 975.215820312 360.611328125 978.471679688 348.001953125 c 4
 997.637695312 273.771484375 1001.13183594 196.361328125 988.729492188 120.705078125 c 4
 985.91796875 103.552734375 980.024414062 87.05078125 971.333984375 71.9990234375 c 4
 945.610351562 27.4453125 898.072265625 -0.0009765625 846.625976562 -0.0009765625 c 6
 672 -0 l 5
 672 768 l 5
 835.564453125 768 l 6
 887.010742188 768 934.548828125 740.553710938 960.271484375 696 c 4
 969.322265625 680.323242188 975.336914062 663.081054688 977.999023438 645.17578125 c 4
 986 591.354492188 986 536.645507812 977.999023438 482.82421875 c 4
883.041992188 496.94140625 m 4
 882.155273438 490.97265625 880.150390625 485.225585938 877.133789062 480 c 4
 868.55859375 465.1484375 852.712890625 456 835.564453125 456 c 6
 768 456 l 5
 768 672 l 5
 835.564453125 672 l 6
 852.712890625 672 868.55859375 662.8515625 877.133789062 648 c 4
 880.150390625 642.774414062 882.155273438 637.02734375 883.041992188 631.05859375 c 4
 889.65234375 586.596679688 889.65234375 541.40234375 883.041992188 496.94140625 c 4
880.61328125 336 m 4
 882.784179688 332.241210938 884.434570312 328.205078125 885.51953125 324.000976562 c 4
 901.353515625 262.678710938 904.239257812 198.732421875 893.994140625 136.234375 c 4
 893.056640625 130.516601562 891.091796875 125.016601562 888.1953125 119.999023438 c 4
 879.62109375 105.147460938 863.775390625 95.9990234375 846.625976562 95.9990234375 c 6
 768 96 l 5
 768 360 l 5
 839.043945312 360 l 6
 856.193359375 360 872.0390625 350.8515625 880.61328125 336 c 4
EndSplineSet
EndChar

StartChar: V
Encoding: 86 86 2
Width: 1152
Flags: HW
LayerCount: 2
Fore
SplineSet
11680.5244141 768 m 5
 11778 768 l 5
 11643 1.2001953125 l 5
 11559 1.2001953125 l 5
 11424 768 l 5
 11521.4755859 768 l 5
 11601 316.301757812 l 5
 11680.5244141 768 l 5
EndSplineSet
EndChar

StartChar: S
Encoding: 83 83 3
Width: 1152
Flags: HW
LayerCount: 2
Fore
SplineSet
10212 600 m 5
 10116 600 l 5
 10116 627 l 6
 10116 658.48046875 10090.4804688 684 10059 684 c 4
 10027.5205078 684 10002 658.48046875 10002 627 c 4
 10002 569.008789062 10026.6533203 513.624023438 10070.0654297 474.0859375 c 4
 10160.5917969 390.287109375 10211.9990234 272.905273438 10212 150 c 4
 10212 92.123046875 10181.1230469 38.642578125 10131 9.7041015625 c 4
 10080.8769531 -19.234375 10019.1230469 -19.234375 9969 9.7041015625 c 4
 9918.87695312 38.642578125 9888 92.123046875 9888 150 c 6
 9888 192 l 5
 9984 192 l 5
 9984 149.868164062 l 6
 9984 126.420898438 9996.57910156 104.631835938 10017 92.8427734375 c 4
 10037.4199219 81.052734375 10062.5791016 81.052734375 10083 92.8427734375 c 4
 10103.4199219 104.631835938 10116 126.420898438 10116 150 c 4
 10115.9990234 246.274414062 10075.6542969 338.221679688 10004.6083984 403.862304688 c 4
 9941.71582031 461.55859375 9906.00097656 542.377929688 9906 627 c 4
 9906 711.499023438 9974.5 780 10059 780 c 4
 10143.5 780 10212 711.5 10212 627 c 4
 10212 618 10212 609 10212 600 c 5
EndSplineSet
EndChar

StartChar: C
Encoding: 67 67 4
Width: 1152
Flags: HW
LayerCount: 2
Fore
SplineSet
1620 628.9140625 m 4
 1620 712.356445312 1552.35644531 780 1468.9140625 780 c 4
 1395.77929688 780 1333.14550781 727.618164062 1320.20996094 655.63671875 c 4
 1287.9296875 475.983398438 1287.9296875 292.013671875 1320.20996094 112.361328125 c 4
 1328.078125 68.578125 1354.84375 30.4853515625 1393.37109375 8.2412109375 c 4
 1440.1171875 -18.7470703125 1497.7109375 -18.7470703125 1544.45703125 8.2412109375 c 4
 1591.203125 35.23046875 1620 85.1083984375 1620 139.0859375 c 6
 1620 180 l 5
 1524 180 l 5
 1524.00097656 139.0859375 l 6
 1524.00097656 119.405273438 1513.50097656 101.220703125 1496.45703125 91.3798828125 c 4
 1479.41308594 81.5400390625 1458.4140625 81.5400390625 1441.37011719 91.3798828125 c 4
 1427.32421875 99.4892578125 1417.56542969 113.376953125 1414.69628906 129.338867188 c 4
 1384.43457031 297.763671875 1384.43457031 470.233398438 1414.69628906 638.658203125 c 4
 1419.41308594 664.90234375 1442.25 684 1468.9140625 684 c 4
 1499.33691406 684 1524 659.336914062 1524 628.9140625 c 1028
1524 628.9140625 m 5
 1620 628.9140625 l 1029
EndSplineSet
EndChar

StartChar: D
Encoding: 68 68 5
Width: 1152
Flags: HW
LayerCount: 2
Fore
SplineSet
2128.73144531 141.470703125 m 4
 2125.10449219 118.793945312 2116.86816406 97.1015625 2104.52929688 77.7333984375 c 4
 2073.68261719 29.3154296875 2020.24804688 -0 1962.83886719 -0 c 6
 1824 0 l 5
 1824 768 l 5
 1962.83984375 768 l 6
 2022.86035156 768 2078.32128906 735.979492188 2108.33203125 684 c 4
 2118.58105469 666.248046875 2125.49511719 646.770507812 2128.73144531 626.529296875 c 4
 2154.42285156 465.86328125 2154.42285156 302.135742188 2128.73144531 141.470703125 c 4
2030.49804688 624.625 m 4
 2032.0625 620.327148438 2033.21386719 615.888671875 2033.93652344 611.37109375 c 4
 2058.02148438 460.747070312 2058.02148438 307.252929688 2033.93554688 156.62890625 c 4
 2033.015625 150.877929688 2031.40136719 145.259765625 2029.12890625 139.897460938 c 4
 2017.84667969 113.28515625 1991.74414062 96 1962.83886719 96 c 6
 1920 96 l 5
 1920 672 l 5
 1962.83984375 672 l 6
 1993.10839844 672 2020.14550781 653.068359375 2030.49804688 624.625 c 4
EndSplineSet
EndChar

StartChar: E
Encoding: 69 69 6
Width: 1152
Flags: HW
LayerCount: 2
Fore
SplineSet
2688 -0 m 5
 2400 -0 l 5
 2400 768 l 5
 2682 768 l 5
 2682 672 l 5
 2496 672 l 5
 2496 468 l 5
 2616 468 l 5
 2616 372 l 5
 2496 372 l 5
 2496 96 l 5
 2688 96 l 5
 2688 -0 l 5
EndSplineSet
EndChar

StartChar: F
Encoding: 70 70 7
Width: 1152
Flags: HW
LayerCount: 2
Fore
SplineSet
2880 768 m 5
 3168 768 l 5
 3168 672 l 5
 2976 672 l 5
 2976 468 l 5
 3084 468 l 5
 3084 372 l 5
 2976 372 l 5
 2976 -0 l 5
 2880 -0 l 5
 2880 768 l 5
EndSplineSet
EndChar

StartChar: G
Encoding: 71 71 8
Width: 1152
Flags: HW
LayerCount: 2
Fore
SplineSet
3532.9140625 780 m 4
 3616.35644531 780 3684 712.356445312 3684 628.9140625 c 5
 3588 628.9140625 l 5
 3588 659.336914062 3563.33691406 684 3532.9140625 684 c 4
 3506.25 684 3483.41308594 664.90234375 3478.69628906 638.658203125 c 4
 3448.43457031 470.234375 3448.43457031 297.763671875 3478.69628906 129.338867188 c 4
 3481.56542969 113.376953125 3491.32421875 99.4892578125 3505.37011719 91.3798828125 c 4
 3522.4140625 81.5400390625 3543.41308594 81.5400390625 3560.45800781 91.3798828125 c 4
 3577.50195312 101.220703125 3588.00097656 119.40625 3588.00097656 139.0859375 c 6
 3588 288 l 5
 3540 288 l 5
 3540 384 l 5
 3684 384 l 5
 3684 139.0859375 l 6
 3684 85.1083984375 3655.203125 35.23046875 3608.45703125 8.2421875 c 4
 3561.7109375 -18.7470703125 3504.1171875 -18.7470703125 3457.37109375 8.2421875 c 4
 3418.84375 30.4853515625 3392.078125 68.578125 3384.20996094 112.361328125 c 4
 3351.9296875 292.013671875 3351.9296875 475.983398438 3384.20996094 655.63671875 c 4
 3397.14550781 727.618164062 3459.77929688 780 3532.9140625 780 c 4
EndSplineSet
EndChar

StartChar: H
Encoding: 72 72 9
Width: 1152
Flags: HW
LayerCount: 2
Fore
SplineSet
3936 -0 m 5
 3936 768 l 5
 4032 768 l 5
 4032 456 l 5
 4164 456 l 5
 4164 768 l 5
 4260 768 l 5
 4260 0 l 5
 4164 0 l 5
 4164 360 l 5
 4032 360 l 5
 4032 -0 l 5
 3936 -0 l 5
EndSplineSet
EndChar

StartChar: N
Encoding: 78 78 10
Width: 1152
Flags: HW
LayerCount: 2
Fore
SplineSet
7332 -0 m 5
 7248 -0 l 5
 7104 456 l 5
 7104 -0 l 5
 7008 -0 l 5
 7008 768 l 5
 7106.14550781 768 l 5
 7236 356.795898438 l 5
 7236 768 l 5
 7332 768 l 5
 7332 -0 l 5
EndSplineSet
EndChar

StartChar: O
Encoding: 79 79 11
Width: 1152
Flags: HW
LayerCount: 2
Fore
SplineSet
7852.19238281 8.416015625 m 4
 7805.04394531 -18.8046875 7746.95605469 -18.8046875 7699.80761719 8.416015625 c 4
 7660.91210938 30.8720703125 7633.90429688 69.3427734375 7625.99609375 113.553710938 c 4
 7594.00097656 292.430664062 7594.00097656 475.567382812 7625.99609375 654.446289062 c 4
 7638.9921875 727.102539062 7702.19042969 780 7776 780 c 4
 7849.80957031 780 7913.0078125 727.102539062 7926.00390625 654.446289062 c 4
 7957.99902344 475.568359375 7957.99902344 292.432617188 7926.00390625 113.555664062 c 4
 7918.09667969 69.34375 7891.08789062 30.8720703125 7852.19238281 8.416015625 c 4
7804.19238281 91.5537109375 m 4
 7786.74707031 81.482421875 7765.25292969 81.482421875 7747.80761719 91.5537109375 c 4
 7733.41601562 99.86328125 7723.42285156 114.09765625 7720.49707031 130.455078125 c 4
 7690.50097656 298.153320312 7690.50097656 469.84375 7720.49707031 637.543945312 c 4
 7725.30664062 664.427734375 7748.69042969 684 7776 684 c 4
 7803.31054688 684 7826.69433594 664.427734375 7831.50292969 637.54296875 c 4
 7861.49902344 469.844726562 7861.49902344 298.154296875 7831.50292969 130.45703125 c 4
 7828.57714844 114.098632812 7818.58398438 99.86328125 7804.19238281 91.5537109375 c 4
EndSplineSet
EndChar

StartChar: R
Encoding: 82 82 12
Width: 1152
Flags: HW
LayerCount: 2
Fore
SplineSet
9408 456 m 5
 9408 672 l 5
 9463.78808594 672 l 6
 9497.15039062 672 9526.14257812 649.081054688 9533.84375 616.619140625 c 4
 9542.05175781 582.018554688 9542.05078125 545.979492188 9533.84375 511.379882812 c 4
 9526.14257812 478.918945312 9497.14941406 456 9463.78808594 456 c 6
 9408 456 l 5
9463.78808594 360 m 6
 9408 360.000976562 l 5
 9408 0.0009765625 l 5
 9312 0.0009765625 l 5
 9312 768.000976562 l 5
 9463.78808594 768.000976562 l 6
 9508.34472656 768.000976562 9551.07617188 750.301757812 9582.58203125 718.794921875 c 4
 9604.60058594 696.77734375 9620.06640625 669.072265625 9627.25292969 638.774414062 c 4
 9633.06445312 614.275390625 9635.99902344 589.180664062 9635.99902344 564.000976562 c 4
 9635.99902344 538.8203125 9633.06347656 513.725585938 9627.25292969 489.2265625 c 4
 9617.54492188 448.30078125 9592.83789062 412.504882812 9558.00976562 388.911132812 c 5
 9635.65136719 0.0009765625 l 5
 9538.10546875 0.0009765625 l 5
 9466.21679688 360.018554688 l 6
 9465.40722656 360.0078125 9464.59667969 360 9463.78808594 360 c 6
EndSplineSet
EndChar

StartChar: I
Encoding: 73 73 13
Width: 1152
Flags: HW
LayerCount: 2
Fore
SplineSet
4512 0 m 5
 4512 768 l 5
 4608 768 l 5
 4608 -0 l 5
 4512 0 l 5
EndSplineSet
EndChar

StartChar: J
Encoding: 74 74 14
Width: 1152
Flags: HW
LayerCount: 2
Fore
SplineSet
4971.140625 84.068359375 m 4
 5009.64746094 85.75 5040 117.45703125 5040 156 c 6
 5040 768 l 5
 5136 768 l 5
 5136 156 l 6
 5136 66.06640625 5065.17675781 -7.9169921875 4975.328125 -11.83984375 c 4
 4889.10351562 -15.6044921875 4814.05371094 46.5771484375 4801.72363281 131.999023438 c 5
 4896.73925781 145.713867188 l 5
 4902.0234375 109.104492188 4934.1875 82.455078125 4971.140625 84.068359375 c 4
EndSplineSet
EndChar

StartChar: K
Encoding: 75 75 15
Width: 1152
Flags: HW
LayerCount: 2
Fore
SplineSet
5712 -0 m 5
 5612.49707031 -0 l 5
 5511.38085938 370.90625 l 5
 5472 288 l 5
 5472 0 l 5
 5376 0 l 5
 5376 768 l 5
 5472 768 l 5
 5472 511.745117188 l 5
 5593.72070312 768 l 5
 5700 768 l 5
 5574.59960938 504 l 5
 5712 -0 l 5
EndSplineSet
EndChar

StartChar: L
Encoding: 76 76 16
Width: 1152
Flags: HW
LayerCount: 2
Fore
SplineSet
5952 768 m 5
 6048 768 l 5
 6048 90 l 5
 6240 90 l 5
 6240 -0 l 5
 5952 0 l 5
 5952 768 l 5
EndSplineSet
EndChar

StartChar: M
Encoding: 77 77 17
Width: 1152
Flags: HW
LayerCount: 2
Fore
SplineSet
6804 768 m 5
 6804 -0 l 5
 6708 -0 l 5
 6708 456 l 5
 6618 168 l 5
 6528 456 l 5
 6528 0 l 5
 6432 0 l 5
 6432 768 l 5
 6531.07714844 768 l 5
 6618 489.846679688 l 5
 6704.92285156 768 l 5
 6804 768 l 5
EndSplineSet
EndChar

StartChar: zero
Encoding: 48 48 18
Width: 1152
Flags: HW
LayerCount: 2
Fore
SplineSet
7852.19238281 8.416015625 m 4
 7805.04394531 -18.8046875 7746.95605469 -18.8046875 7699.80761719 8.416015625 c 4
 7660.91210938 30.8720703125 7633.90429688 69.3427734375 7625.99609375 113.553710938 c 4
 7594.00097656 292.430664062 7594.00097656 475.567382812 7625.99609375 654.446289062 c 4
 7638.9921875 727.102539062 7702.19042969 780 7776 780 c 4
 7849.80957031 780 7913.0078125 727.102539062 7926.00390625 654.446289062 c 4
 7957.99902344 475.568359375 7957.99902344 292.432617188 7926.00390625 113.555664062 c 4
 7918.09667969 69.34375 7891.08789062 30.8720703125 7852.19238281 8.416015625 c 4
7804.19238281 91.5537109375 m 4
 7786.74707031 81.482421875 7765.25292969 81.482421875 7747.80761719 91.5537109375 c 4
 7733.41601562 99.86328125 7723.42285156 114.09765625 7720.49707031 130.455078125 c 4
 7690.50097656 298.153320312 7690.50097656 469.84375 7720.49707031 637.543945312 c 4
 7725.30664062 664.427734375 7748.69042969 684 7776 684 c 4
 7803.31054688 684 7826.69433594 664.427734375 7831.50292969 637.54296875 c 4
 7861.49902344 469.844726562 7861.49902344 298.154296875 7831.50292969 130.45703125 c 4
 7828.57714844 114.098632812 7818.58398438 99.86328125 7804.19238281 91.5537109375 c 4
EndSplineSet
EndChar

StartChar: P
Encoding: 80 80 19
Width: 1152
Flags: HW
LayerCount: 2
Fore
SplineSet
8459.07714844 439.383789062 m 4
 8432.99121094 376.780273438 8371.82128906 336 8304 336 c 6
 8256 336 l 5
 8256 0 l 5
 8160 -0 l 5
 8160 768 l 5
 8311.78613281 768 l 6
 8379.73535156 768 8440.99414062 727.068359375 8466.99804688 664.291015625 c 4
 8470.42480469 656.017578125 8473.18457031 647.484375 8475.25292969 638.770507812 c 4
 8491.02832031 572.265625 8485.36523438 502.475585938 8459.07714844 439.383789062 c 4
8370.4609375 476.306640625 m 4
 8359.28125 449.4765625 8333.06542969 432 8304 432 c 6
 8256 432 l 5
 8256 672 l 5
 8311.78613281 672 l 6
 8340.90722656 672 8367.16113281 654.458007812 8378.30566406 627.552734375 c 4
 8379.77441406 624.006835938 8380.95703125 620.349609375 8381.84472656 616.615234375 c 4
 8392.9453125 569.81640625 8388.9609375 520.705078125 8370.4609375 476.306640625 c 4
EndSplineSet
EndChar

StartChar: Q
Encoding: 81 81 20
Width: 1152
Flags: HW
LayerCount: 2
Fore
SplineSet
8872.49707031 637.543945312 m 4
 8877.30664062 664.427734375 8900.69042969 684 8928 684 c 4
 8955.31054688 684 8978.69433594 664.427734375 8983.50390625 637.54296875 c 4
 9013.03710938 472.428710938 9013.49511719 303.424804688 8984.85839844 138.154296875 c 5
 8957.61035156 178.380859375 l 5
 8898 138 l 5
 8934.32519531 84.35546875 l 5
 8922.34570312 83.00390625 8910.24804688 85.5263671875 8899.80761719 91.5537109375 c 4
 8885.41601562 99.86328125 8875.42285156 114.09765625 8872.49707031 130.455078125 c 4
 8842.50097656 298.153320312 8842.50097656 469.84375 8872.49707031 637.543945312 c 4
8777.99707031 654.446289062 m 4
 8790.9921875 727.102539062 8854.19042969 780 8928 780 c 4
 9001.80957031 780 9065.0078125 727.102539062 9078.00390625 654.446289062 c 4
 9109.99902344 475.568359375 9109.99902344 292.432617188 9078.00390625 113.5546875 c 4
 9073.57421875 88.7900390625 9063.08203125 65.505859375 9047.46289062 45.7822265625 c 5
 9083.61035156 -7.619140625 l 5
 9023.99902344 -48 l 5
 8990.50976562 1.4111328125 l 5
 8945.83789062 -18.6826171875 8894.22851562 -16.076171875 8851.80761719 8.416015625 c 4
 8812.91210938 30.8720703125 8785.90429688 69.34375 8777.99707031 113.553710938 c 4
 8746.00195312 292.430664062 8746.00195312 475.567382812 8777.99707031 654.446289062 c 4
EndSplineSet
EndChar

StartChar: T
Encoding: 84 84 21
Width: 1152
Flags: HW
LayerCount: 2
Fore
SplineSet
10464 768 m 5
 10752 768 l 5
 10752 672 l 5
 10656 672 l 5
 10656 -0 l 5
 10560 -0 l 5
 10560 672 l 5
 10464 672 l 5
 10464 768 l 5
EndSplineSet
EndChar

StartChar: U
Encoding: 85 85 22
Width: 1152
Flags: HW
LayerCount: 2
Fore
SplineSet
10944 768 m 5
 11040 768 l 5
 11040 150 l 6
 11040 126.419921875 11052.5800781 104.631835938 11073.0009766 92.841796875 c 4
 11093.4208984 81.052734375 11118.5800781 81.052734375 11139.0009766 92.841796875 c 4
 11159.4208984 104.631835938 11172 126.420898438 11172 150 c 6
 11172 768 l 5
 11268 768 l 5
 11268 150 l 6
 11268 92.123046875 11237.1230469 38.642578125 11187.0009766 9.7041015625 c 4
 11136.8779297 -19.234375 11075.1230469 -19.234375 11025.0009766 9.7041015625 c 4
 10974.8779297 38.642578125 10944 92.123046875 10944 150 c 6
 10944 768 l 5
EndSplineSet
EndChar

StartChar: W
Encoding: 87 87 23
Width: 1152
Flags: HW
CounterMasks: 1 e0
LayerCount: 2
Fore
SplineSet
12198.6757812 768 m 5
 12281.3242188 768 l 5
 12342.9716797 398.118164062 l 5
 12383.4277344 768 l 5
 12480 768 l 5
 12396 -0 l 5
 12312 -0 l 5
 12240 432 l 5
 12168 -0 l 5
 12084 -0 l 5
 12000 768 l 5
 12096.5722656 768 l 5
 12137.0283203 398.1171875 l 5
 12198.6757812 768 l 5
EndSplineSet
EndChar

StartChar: X
Encoding: 88 88 24
Width: 1152
Flags: HW
LayerCount: 2
Fore
SplineSet
12798.5751953 393.322265625 m 5
 12677.9990234 768 l 5
 12778.8476562 768 l 5
 12848.9990234 550.010742188 l 5
 12919.1513672 768 l 5
 13019.9990234 768 l 5
 12899.4238281 393.322265625 l 5
 12899.4238281 393.322265625 l 5
 13026 0 l 5
 12925.1523438 0 l 5
 12848.9990234 236.634765625 l 5
 12772.8476562 0 l 5
 12672 0 l 5
 12798.5751953 393.322265625 l 1029
EndSplineSet
EndChar

StartChar: Y
Encoding: 89 89 25
Width: 1152
Flags: HW
LayerCount: 2
Fore
SplineSet
13541.640625 768 m 5
 13644 768 l 5
 13488.0009766 348 l 5
 13488.0009766 -0 l 5
 13392.0009766 -0 l 5
 13392.0009766 348 l 5
 13236 768 l 5
 13338.4082031 768 l 5
 13440 494.484375 l 5
 13541.640625 768 l 5
EndSplineSet
EndChar

StartChar: Z
Encoding: 90 90 26
Width: 1152
Flags: HW
LayerCount: 2
Fore
SplineSet
13922.4003906 96 m 5
 14148 96 l 5
 14148 -0 l 5
 13824 0 l 5
 13824 108 l 5
 14044.8994141 672 l 5
 13842 672 l 5
 13842 768 l 5
 14148.0009766 768 l 5
 14148 672 l 5
 13922.4003906 96 l 5
EndSplineSet
EndChar

StartChar: one
Encoding: 49 49 27
Width: 1152
Flags: HW
LayerCount: 2
Fore
SplineSet
14435.9277344 719.982421875 m 5
 14435.9277344 719.982421875 l 5
 14466.5214844 730.891601562 14495.0097656 747.15625 14520.0039062 768.00390625 c 5
 14592 768 l 5
 14592 -0 l 5
 14496 0 l 5
 14496 660 l 5
 14436 660 l 5
 14435.9277344 719.982421875 l 5
EndSplineSet
EndChar

StartChar: two
Encoding: 50 50 28
Width: 1152
Flags: HW
LayerCount: 2
Fore
SplineSet
14976 618 m 5
 14880 618 l 5
 14880 707.469726562 14952.5302734 780 15042 780 c 4
 15131.4707031 780 15204 707.469726562 15204 618 c 4
 15204 538.188476562 15175.3671875 461.173828125 15123.6357422 400.3984375 c 4
 15049.4365234 313.235351562 15001.1855469 207.810546875 14983.53125 96.0009765625 c 5
 15192 96 l 5
 15192 -0 l 5
 14880 0 l 5
 14879.9990234 169.533203125 14940.4521484 333.530273438 15050.5322266 462.624023438 c 4
 15087.6279297 505.982421875 15108 561.061523438 15108 618 c 4
 15108 654.450195312 15078.4511719 684 15042 684 c 4
 15005.5498047 684 14976 654.450195312 14976 618 c 5
EndSplineSet
EndChar

StartChar: three
Encoding: 51 51 29
Width: 1152
Flags: HW
LayerCount: 2
Fore
SplineSet
15691.7021484 9.0517578125 m 4
 15643.0849609 -19.017578125 15583.1855469 -19.017578125 15534.5683594 9.0517578125 c 4
 15485.9511719 37.12109375 15456.0009766 88.9951171875 15456.0009766 145.133789062 c 5
 15552.0009766 145.133789062 l 5
 15552.0009766 123.29296875 15563.6533203 103.111328125 15582.5683594 92.1904296875 c 4
 15601.4833984 81.26953125 15624.7871094 81.26953125 15643.7021484 92.1904296875 c 4
 15657.5380859 100.178710938 15667.6962891 113.265625 15672.0039062 128.649414062 c 4
 15692.4296875 201.607421875 15686.6416016 279.416992188 15655.6464844 348.549804688 c 4
 15645.9736328 370.12109375 15624.5371094 384.002929688 15600.8974609 384.002929688 c 6
 15597.6162109 384 l 5
 15564 384 l 5
 15564 480 l 5
 15597.6162109 480 l 6
 15624.9755859 480 15648.8691406 498.5078125 15655.7109375 524.998046875 c 4
 15664.7197266 559.890625 15667.8466797 596.041992188 15664.9580078 631.962890625 c 4
 15664.2841797 640.331054688 15661.7578125 648.444335938 15657.5605469 655.71484375 c 4
 15647.4550781 673.217773438 15628.7792969 684 15608.5693359 684 c 4
 15577.3271484 684 15551.9990234 658.672851562 15551.9990234 627.4296875 c 5
 15455.9990234 627.4296875 l 5
 15455.9990234 711.692382812 15524.3076172 780 15608.5693359 780 c 4
 15663.0771484 780 15713.4453125 750.920898438 15740.6992188 703.71484375 c 4
 15752.0195312 684.106445312 15758.8339844 662.224609375 15760.6484375 639.65625 c 4
 15764.3925781 593.091796875 15760.3427734 546.229492188 15748.6621094 500.998046875 c 4
 15742.1582031 475.80859375 15729.4570312 452.646484375 15711.7587891 433.666015625 c 5
 15724.9472656 420.423828125 15735.5986328 404.879882812 15743.2460938 387.822265625 c 4
 15783.4238281 298.206054688 15790.9257812 197.34375 15764.4482422 102.768554688 c 4
 15753.3769531 63.2236328125 15727.265625 29.5849609375 15691.7021484 9.0517578125 c 4
EndSplineSet
EndChar

StartChar: four
Encoding: 52 52 30
Width: 1152
Flags: HW
LayerCount: 2
Fore
SplineSet
16032 192 m 5
 16032 288 l 5
 16260 768 l 5
 16368 768 l 5
 16368 282 l 5
 16404 282 l 5
 16404 192 l 5
 16368 192 l 5
 16368 -0 l 5
 16272 -0 l 5
 16272 192 l 5
 16032 192 l 5
16128.7871094 282 m 5
 16272 583.5 l 1029
16128.7871094 282 m 5
 16272 282 l 5
 16272 583.5 l 1029
EndSplineSet
EndChar

StartChar: five
Encoding: 53 53 31
Width: 1152
Flags: HW
LayerCount: 2
Fore
SplineSet
16908 672 m 5
 16724.9521484 672 l 5
 16719.6455078 507.95703125 l 5
 16735.5859375 513.284179688 16752.2832031 516 16769.0917969 516 c 4
 16824.8242188 516 16876.3242188 486.266601562 16904.1914062 438 c 4
 16911.8564453 424.723632812 16917.5224609 410.390625 16921.0068359 395.461914062 c 4
 16944.7119141 293.8984375 16929.7822266 187.1484375 16879.1220703 95.9853515625 c 4
 16842.0810547 29.330078125 16771.8183594 -12.0068359375 16695.5625 -12.0068359375 c 4
 16660.8076172 -12.0068359375 16626.5966797 -3.3818359375 16595.9980469 13.095703125 c 5
 16641.5126953 97.6201171875 l 5
 16658.1240234 88.67578125 16676.6953125 83.9931640625 16695.5625 83.9931640625 c 4
 16736.9580078 83.9931640625 16775.0996094 106.43359375 16795.2080078 142.6171875 c 4
 16834.2890625 212.943359375 16845.8066406 295.293945312 16827.5195312 373.642578125 c 4
 16826.1787109 379.383789062 16824 384.89453125 16821.0527344 390 c 4
 16810.3339844 408.563476562 16790.5273438 420 16769.0917969 420 c 4
 16748.8369141 420 16729.9492188 409.78125 16718.9335938 392.913085938 c 5
 16620 396 l 5
 16632 768 l 5
 16908 768 l 5
 16908 672 l 5
EndSplineSet
EndChar

StartChar: six
Encoding: 54 54 32
Width: 384
Flags: HW
LayerCount: 2
Fore
SplineSet
102.083984375 307.99609375 m 5
 106.33203125 337.83203125 131.877929688 360 162.013671875 360 c 4
 192.149414062 360 217.6953125 337.833007812 221.942382812 307.998046875 c 4
 230.036132812 250.959960938 230.036132812 193.064453125 221.942382812 136.026367188 c 4
 219.330078125 117.606445312 208.389648438 101.412109375 192.278320312 92.109375 c 4
 173.548828125 81.296875 150.474609375 81.296875 131.74609375 92.109375 c 4
 115.633789062 101.412109375 104.694335938 117.607421875 102.080078125 136.028320312 c 4
 93.986328125 193.064453125 93.986328125 250.958007812 102.080078125 307.99609375 c 5
 102.083984375 307.99609375 l 5
240.280273438 8.9716796875 m 5
 191.848632812 -18.990234375 132.178710938 -18.990234375 83.748046875 8.9716796875 c 4
 42.08203125 33.02734375 13.79296875 74.908203125 7.0341796875 122.54296875 c 4
 -28.5546875 373.372070312 72.591796875 624.1015625 272.267578125 780.0234375 c 5
 331.350585938 704.358398438 l 5
 247.633789062 638.985351562 182.373046875 552.950195312 141.991210938 454.713867188 c 5
 148.635742188 455.571289062 155.322265625 456 162.013671875 456 c 4
 239.95703125 456 306.025390625 398.655273438 316.989257812 321.48828125 c 4
 326.353515625 255.502929688 326.353515625 188.526367188 316.989257812 122.540039062 c 4
 310.23046875 74.9052734375 281.943359375 33.0263671875 240.278320312 8.9716796875 c 5
 240.280273438 8.9716796875 l 5
EndSplineSet
EndChar

StartChar: seven
Encoding: 55 55 33
Width: 1152
Flags: HW
LayerCount: 2
Fore
SplineSet
18084 768 m 5
 18083.9931641 671.99609375 l 5
 17985.453125 461.671875 17934.3779297 232.256835938 17934.3779297 0 c 5
 17838.3779297 0 l 5
 17838.3779297 231.266601562 17886.1259766 460.04296875 17978.6328125 672.000976562 c 5
 17760 672 l 5
 17760 768 l 5
 18084 768 l 5
EndSplineSet
EndChar

StartChar: eight
Encoding: 56 56 34
Width: 18371
Flags: HWO
LayerCount: 2
Fore
SplineSet
18456 564 m 5
 18456 552 l 1029
18329.9033203 462.405273438 m 4
 18315.1123047 453.865234375 18296.8886719 453.865234375 18282.0976562 462.405273438 c 4
 18270.625 469.028320312 18262.4160156 480.114257812 18259.4277344 493.018554688 c 4
 18246.6132812 548.341796875 18250.4423828 606.219726562 18270.4326172 659.375976562 c 4
 18276.0029297 674.190429688 18290.1728516 684 18306 684 c 4
 18321.8271484 684 18335.9970703 674.189453125 18341.5683594 659.375 c 4
 18361.5576172 606.221679688 18365.3867188 548.344726562 18352.5732422 493.020507812 c 4
 18349.5839844 480.114257812 18341.375 469.028320312 18329.9033203 462.405273438 c 4
18402.4179688 23.09375 m 4
 18346.6552734 -23.697265625 18265.3457031 -23.697265625 18209.5820312 23.09375 c 4
 18186.8632812 42.1572265625 18170.3056641 67.52734375 18162 96 c 4
 18138.0009766 178.286132812 18138.0009766 265.712890625 18162 347.999023438 c 4
 18168.71875 371.033203125 18180.8632812 392.119140625 18197.375 409.55078125 c 5
 18181.9824219 427.326171875 18171.1914062 448.5234375 18165.9023438 471.358398438 c 4
 18148.8183594 545.123046875 18153.9228516 622.293945312 18180.5761719 693.16796875 c 4
 18200.2226562 745.408203125 18250.1894531 780 18306 780 c 4
 18361.8115234 780 18411.7792969 745.407226562 18431.4238281 693.166992188 c 4
 18458.0761719 622.293945312 18463.1816406 545.124023438 18446.0976562 471.359375 c 4
 18440.8085938 448.5234375 18430.0175781 427.326171875 18414.6914062 409.48046875 c 5
 18431.203125 392.00390625 18443.2998047 370.970703125 18449.9990234 348 c 4
 18473.9990234 265.713867188 18473.9990234 178.286132812 18449.9990234 96 c 4
 18441.6962891 67.5283203125 18425.1386719 42.1572265625 18402.4179688 23.09375 c 4
18340.7099609 96.6337890625 m 5
 18320.6357422 79.7890625 18291.3642578 79.7890625 18271.2890625 96.6337890625 c 4
 18263.1103516 103.497070312 18257.1484375 112.630859375 18254.1591797 122.880859375 c 4
 18235.2802734 187.611328125 18235.2802734 256.387695312 18254.1591797 321.119140625 c 4
 18258.0546875 334.474609375 18266.9521484 345.810546875 18278.9990234 352.765625 c 4
 18295.7070312 362.411132812 18316.2910156 362.411132812 18332.9990234 352.765625 c 4
 18345.0449219 345.810546875 18353.9433594 334.474609375 18357.8378906 321.120117188 c 4
 18376.71875 256.387695312 18376.71875 187.611328125 18357.8378906 122.880859375 c 4
 18354.8496094 112.630859375 18348.8886719 103.497070312 18340.7089844 96.6337890625 c 5
 18340.7099609 96.6337890625 l 5
EndSplineSet
EndChar
